<svg xmlns="http://www.w3.org/2000/svg" viewBox="0 0 32 32" width="32" height="32">
  <!-- 白色背景 -->
  <rect x="0" y="0" width="32" height="32" fill="#ffffff"/>
  
  <!-- 钢琴键盘主体框架 -->
  <rect x="4" y="10" width="24" height="14" rx="1" fill="#ffffff" stroke="#000000" stroke-width="1"/>
  
  <!-- 白键分隔线 -->
  <line x1="8.4" y1="10" x2="8.4" y2="24" stroke="#000000" stroke-width="0.5" opacity="0.4"/>
  <line x1="12.8" y1="10" x2="12.8" y2="24" stroke="#000000" stroke-width="0.5" opacity="0.4"/>
  <line x1="17.2" y1="10" x2="17.2" y2="24" stroke="#000000" stroke-width="0.5" opacity="0.4"/>
  <line x1="21.6" y1="10" x2="21.6" y2="24" stroke="#000000" stroke-width="0.5" opacity="0.4"/>
  <line x1="26" y1="10" x2="26" y2="24" stroke="#000000" stroke-width="0.5" opacity="0.4"/>
  
  <!-- 黑键 -->
  <rect x="6.5" y="10" width="2.5" height="9" rx="0.3" fill="#000000"/>
  <rect x="10.5" y="10" width="2.5" height="9" rx="0.3" fill="#000000"/>
  <rect x="18.5" y="10" width="2.5" height="9" rx="0.3" fill="#000000"/>
  <rect x="22.5" y="10" width="2.5" height="9" rx="0.3" fill="#000000"/>
  
  <!-- 简洁的音符装饰 -->
  <circle cx="16" cy="6" r="1.5" fill="#000000"/>
  <rect x="16.8" y="3" width="0.8" height="5" fill="#000000"/>
  <path d="M17.6 3 Q19 3 19 4.5 Q19 6 17.6 6" fill="#000000"/>
</svg>