<svg t="1755786453322" class="icon" viewBox="0 0 1024 1024" version="1.1" xmlns="http://www.w3.org/2000/svg" p-id="3126" width="32" height="32">
  <path d="M789.333333 682.709333h-298.666666a21.290667 21.290667 0 0 1-19.328-12.330666l-298.666667-640A21.333333 21.333333 0 0 1 192 0.042667h256c5.504 0 10.837333 2.176 14.805333 5.973333 0.853333 0.810667 84.778667 79.36 241.194667 79.36 176.469333 0 320 143.530667 320 320 0 169.898667-187.690667 277.333333-234.666667 277.333333z m-285.098666-42.666666h284.970666c21.632-1.365333 192.128-85.845333 192.128-234.666667 0-152.917333-124.416-277.333333-277.333333-277.333333-150.229333 0-239.573333-64.853333-264.064-85.333334H225.493333l278.741334 597.333334z" p-id="3127" fill="gold"></path>
  <path d="M234.666667 682.709333a21.333333 21.333333 0 0 1-17.749334-33.152l256-384a21.333333 21.333333 0 1 1 35.498667 23.637334l-256 384a21.248 21.248 0 0 1-17.749333 9.514666zM746.666667 1024.042667a21.333333 21.333333 0 0 1-21.333334-21.333334v-128a21.333333 21.333333 0 0 1 42.666667 0v128a21.333333 21.333333 0 0 1-21.333333 21.333334zM192 1024.042667a21.333333 21.333333 0 0 1-21.333333-21.333334v-128a21.333333 21.333333 0 0 1 42.666666 0v128a21.333333 21.333333 0 0 1-21.333333 21.333334z" p-id="3128" fill="gold"></path>
  <path d="M917.333333 896.042667H21.333333a21.333333 21.333333 0 0 1-21.333333-21.333334v-85.333333a21.333333 21.333333 0 0 1 21.333333-21.333333c58.794667 0 106.666667-47.872 106.666667-106.666667a21.333333 21.333333 0 0 1 21.333333-21.333333h768a21.333333 21.333333 0 0 1 21.333334 21.333333v213.333333a21.333333 21.333333 0 0 1-21.333334 21.333334z m-874.666666-42.666667h853.333333v-170.666667H169.130667A149.504 149.504 0 0 1 42.666667 809.173333v44.202667z" p-id="3129" fill="gold"></path>
</svg>
